<svg width="2930" height="2930" viewBox="0 0 2930 2930" fill="none" xmlns="http://www.w3.org/2000/svg">
<path d="M0 686.719C0 307.454 307.454 0 686.719 0H2243.28C2622.55 0 2930 307.454 2930 686.719V2243.28C2930 2622.55 2622.55 2930 2243.28 2930H686.719C307.454 2930 0 2622.55 0 2243.28V686.719Z" fill="#5A0FC8"/>
<path d="M1003.79 1347.75V2032.59H772.022V1161.86H989.304L1003.79 1347.75ZM969.99 1566.64H907.22C907.22 1502.26 915.536 1444.32 932.167 1392.82C948.799 1340.78 972.136 1296.52 1002.18 1260.04C1032.22 1223.02 1067.9 1194.85 1109.21 1175.54C1151.06 1155.69 1197.73 1145.76 1249.24 1145.76C1290.01 1145.76 1327.3 1151.66 1361.1 1163.47C1394.9 1175.27 1423.87 1194.05 1448.01 1219.8C1472.69 1245.55 1491.47 1279.62 1504.34 1322C1517.76 1364.38 1524.46 1416.16 1524.46 1477.32V2032.59H1291.08V1476.51C1291.08 1437.88 1285.72 1407.84 1274.99 1386.38C1264.26 1364.92 1248.43 1349.9 1227.51 1341.31C1207.12 1332.19 1181.91 1327.63 1151.86 1327.63C1120.75 1327.63 1093.65 1333.8 1070.58 1346.14C1048.05 1358.48 1029.27 1375.65 1014.25 1397.65C999.766 1419.11 988.768 1444.32 981.257 1473.29C973.746 1502.26 969.99 1533.38 969.99 1566.64Z" fill="white"/>
<path d="M2127.37 1161.86V1326.02H1620.38V1161.86H2127.37ZM1745.92 946.988H1977.68V1770.25C1977.68 1795.46 1980.9 1814.78 1987.34 1828.19C1994.32 1841.6 2004.51 1850.99 2017.92 1856.35C2031.33 1861.18 2048.23 1863.6 2068.62 1863.6C2083.11 1863.6 2095.98 1863.06 2107.25 1861.99C2119.05 1860.38 2128.98 1858.77 2137.02 1857.16L2137.83 2027.77C2117.98 2034.2 2096.52 2039.3 2073.45 2043.06C2050.38 2046.81 2024.9 2048.69 1997 2048.69C1946.03 2048.69 1901.5 2040.37 1863.41 2023.74C1825.85 2006.57 1796.88 1979.21 1776.5 1941.66C1756.11 1904.1 1745.92 1854.74 1745.92 1793.58V946.988Z" fill="white"/>
</svg>
